M48
; DRILL file KiCad 10.0.1 date 2026-08-18T09:47:55
; FORMAT={-:-/ absolute / metric / decimal}
; #@! TF.CreationDate,2026-08-18T09:47:55-05:00
; #@! TF.GenerationSoftware,Kicad,Pcbnew,10.0.1
; #@! TF.FileFunction,Plated,1,2,PTH
FMAT,2
METRIC
; #@! TA.AperFunction,Plated,PTH,ComponentDrill
T1C0.714
; #@! TA.AperFunction,Plated,PTH,ViaDrill
T2C0.750
; #@! TA.AperFunction,Plated,PTH,ComponentDrill
T3C0.800
; #@! TA.AperFunction,Plated,PTH,ComponentDrill
T4C1.000
%
G90
G05
T1
X135.266Y-69.835
X135.266Y-74.915
X137.806Y-72.375
T2
X68.2Y-62.4
X69.275Y-114.6
X103.225Y-117.59
X132.6Y-115.7
X162.95Y-114.175
T3
X61.975Y-114.43
X64.386Y-131.725
X64.564Y-122.475
X64.675Y-102.04
X64.675Y-109.66
X66.886Y-131.725
X66.975Y-114.43
X67.064Y-122.475
X70.69Y-104.7
X71.835Y-91.8
X74.375Y-91.8
X75.225Y-120.81
X75.225Y-125.81
X76.915Y-91.8
X78.31Y-104.7
X80.855Y-129.1
X82.49Y-104.675
X82.64Y-109.5
X83.575Y-121.855
X88.475Y-129.1
X88.575Y-121.855
X90.11Y-104.675
X90.26Y-109.5
X96.175Y-114.415
X97.611Y-131.975
X97.675Y-122.85
X100.111Y-131.975
X100.175Y-122.85
X100.475Y-100.415
X100.475Y-108.035
X101.175Y-114.415
X104.965Y-102.375
X105.21Y-91.68
X107.75Y-91.68
X108.35Y-121.565
X108.35Y-126.565
X110.29Y-91.68
X112.585Y-102.375
X112.915Y-129.175
X114.375Y-121.74
X116.14Y-107.275
X116.265Y-102.375
X119.375Y-121.74
X120.535Y-129.175
X123.76Y-107.275
X123.885Y-102.375
X127.3Y-111.78
X128.35Y-129.9
X128.489Y-120.675
X129.725Y-99.09
X129.725Y-106.71
X130.85Y-129.9
X130.989Y-120.675
X132.3Y-111.78
X135.64Y-102.45
X136.81Y-91.605
X139.35Y-91.605
X139.75Y-120.855
X139.75Y-125.855
X141.89Y-91.605
X143.26Y-102.45
X143.965Y-129.175
X146.465Y-108.1
X146.49Y-102.4
X146.5Y-121.555
X151.5Y-121.555
X151.585Y-129.175
X154.085Y-108.1
X154.11Y-102.4
X159.875Y-109.575
X160.686Y-128.725
X160.864Y-119.55
X162.075Y-97.39
X162.075Y-105.01
X163.186Y-128.725
X163.364Y-119.55
X164.875Y-109.575
X168.615Y-103.175
X169.385Y-91.53
X171.925Y-91.53
X172.475Y-122.02
X172.475Y-127.02
X174.465Y-91.53
X176.235Y-103.175
X177.69Y-129.275
X179.615Y-108.675
X179.665Y-103.175
X180.25Y-122.425
X185.25Y-122.425
X185.31Y-129.275
X187.235Y-108.675
X187.285Y-103.175
T4
X55.65Y-112.195
X55.65Y-114.735
X55.65Y-117.275
X55.65Y-119.815
X55.65Y-122.355
X55.65Y-124.895
X55.65Y-127.435
X71.91Y-76.0
X74.435Y-135.16
X74.45Y-76.0
X75.49Y-43.0
X75.67Y-51.0
X75.99Y-58.5
X75.99Y-67.5
X76.975Y-135.16
X76.99Y-76.0
X78.03Y-43.0
X78.21Y-51.0
X78.53Y-58.5
X78.53Y-67.5
X79.53Y-76.0
X80.57Y-43.0
X80.75Y-51.0
X81.07Y-58.5
X81.07Y-67.5
X82.07Y-76.0
X107.535Y-134.825
X107.55Y-68.325
X107.55Y-70.865
X107.55Y-73.405
X107.55Y-75.945
X107.55Y-78.485
X108.964Y-57.357
X110.075Y-134.825
X111.504Y-57.357
X114.044Y-57.357
X116.584Y-57.357
X119.124Y-57.357
X136.385Y-136.23
X138.925Y-136.23
X159.735Y-76.695
X162.125Y-56.855
X162.125Y-59.395
X162.125Y-61.935
X162.125Y-64.475
X162.275Y-76.695
X162.851Y-40.98
X164.815Y-76.695
X165.391Y-40.98
X167.355Y-76.695
X167.931Y-40.98
X169.895Y-76.695
X170.471Y-40.98
X171.16Y-135.845
X172.435Y-76.695
X173.011Y-40.98
X173.7Y-135.845
X174.975Y-76.695
X175.551Y-40.98
X177.515Y-76.695
X178.091Y-40.98
X180.631Y-40.98
X187.931Y-40.98
X188.475Y-76.695
X190.471Y-40.98
X191.015Y-76.695
X193.011Y-40.98
X193.555Y-76.695
X196.095Y-76.695
X196.625Y-57.215
X196.625Y-59.755
X196.625Y-62.295
X196.625Y-64.835
M30
