%TF.GenerationSoftware,KiCad,Pcbnew,10.0.1*%
%TF.CreationDate,2026-08-18T09:46:24-05:00*%
%TF.ProjectId,Merge_stage_PCB,4d657267-655f-4737-9461-67655f504342,rev?*%
%TF.SameCoordinates,Original*%
%TF.FileFunction,Soldermask,Top*%
%TF.FilePolarity,Negative*%
%FSLAX46Y46*%
G04 Gerber Fmt 4.6, Leading zero omitted, Abs format (unit mm)*
G04 Created by KiCad (PCBNEW 10.0.1) date 2026-08-18 09:46:24*
%MOMM*%
%LPD*%
G01*
G04 APERTURE LIST*
G04 Aperture macros list*
%AMRoundRect*
0 Rectangle with rounded corners*
0 $1 Rounding radius*
0 $2 $3 $4 $5 $6 $7 $8 $9 X,Y pos of 4 corners*
0 Add a 4 corners polygon primitive as box body*
4,1,4,$2,$3,$4,$5,$6,$7,$8,$9,$2,$3,0*
0 Add four circle primitives for the rounded corners*
1,1,$1+$1,$2,$3*
1,1,$1+$1,$4,$5*
1,1,$1+$1,$6,$7*
1,1,$1+$1,$8,$9*
0 Add four rect primitives between the rounded corners*
20,1,$1+$1,$2,$3,$4,$5,0*
20,1,$1+$1,$4,$5,$6,$7,0*
20,1,$1+$1,$6,$7,$8,$9,0*
20,1,$1+$1,$8,$9,$2,$3,0*%
G04 Aperture macros list end*
%ADD10RoundRect,0.250000X-0.312500X-1.075000X0.312500X-1.075000X0.312500X1.075000X-0.312500X1.075000X0*%
%ADD11C,1.600000*%
%ADD12RoundRect,0.250000X-0.250000X-0.475000X0.250000X-0.475000X0.250000X0.475000X-0.250000X0.475000X0*%
%ADD13RoundRect,0.375000X-0.625000X-0.375000X0.625000X-0.375000X0.625000X0.375000X-0.625000X0.375000X0*%
%ADD14RoundRect,0.500000X-0.500000X-1.400000X0.500000X-1.400000X0.500000X1.400000X-0.500000X1.400000X0*%
%ADD15R,1.700000X1.700000*%
%ADD16C,1.700000*%
%ADD17RoundRect,0.150000X0.825000X0.150000X-0.825000X0.150000X-0.825000X-0.150000X0.825000X-0.150000X0*%
%ADD18R,1.525000X0.650000*%
%ADD19RoundRect,0.250000X-0.550000X-0.550000X0.550000X-0.550000X0.550000X0.550000X-0.550000X0.550000X0*%
%ADD20RoundRect,0.102000X-0.279400X0.901700X-0.279400X-0.901700X0.279400X-0.901700X0.279400X0.901700X0*%
%ADD21RoundRect,0.250000X1.075000X-0.312500X1.075000X0.312500X-1.075000X0.312500X-1.075000X-0.312500X0*%
%ADD22RoundRect,0.250000X0.250000X0.475000X-0.250000X0.475000X-0.250000X-0.475000X0.250000X-0.475000X0*%
%ADD23RoundRect,0.250000X-1.100000X0.325000X-1.100000X-0.325000X1.100000X-0.325000X1.100000X0.325000X0*%
%ADD24RoundRect,0.250000X0.550000X0.550000X-0.550000X0.550000X-0.550000X-0.550000X0.550000X-0.550000X0*%
%ADD25RoundRect,0.250000X-1.075000X0.312500X-1.075000X-0.312500X1.075000X-0.312500X1.075000X0.312500X0*%
%ADD26RoundRect,0.250000X1.100000X-0.325000X1.100000X0.325000X-1.100000X0.325000X-1.100000X-0.325000X0*%
%ADD27RoundRect,0.102000X-0.750000X0.750000X-0.750000X-0.750000X0.750000X-0.750000X0.750000X0.750000X0*%
%ADD28C,1.704000*%
%ADD29RoundRect,0.100500X-0.301500X0.986500X-0.301500X-0.986500X0.301500X-0.986500X0.301500X0.986500X0*%
%ADD30RoundRect,0.102000X0.380000X-0.635000X0.380000X0.635000X-0.380000X0.635000X-0.380000X-0.635000X0*%
G04 APERTURE END LIST*
D10*
%TO.C,Rg1*%
X124725000Y-76025000D03*
X127650000Y-76025000D03*
%TD*%
D11*
%TO.C,C11*%
X108350000Y-126565000D03*
X108350000Y-121565000D03*
%TD*%
%TO.C,Rpd11*%
X154085000Y-108100000D03*
X146465000Y-108100000D03*
%TD*%
D12*
%TO.C,C20*%
X61000000Y-64500000D03*
X62900000Y-64500000D03*
%TD*%
D11*
%TO.C,VR3*%
X136810000Y-91605000D03*
X139350000Y-91605000D03*
X141890000Y-91605000D03*
%TD*%
%TO.C,Rpd18*%
X176235000Y-103175000D03*
X168615000Y-103175000D03*
%TD*%
D12*
%TO.C,C14*%
X181025000Y-73194600D03*
X182925000Y-73194600D03*
%TD*%
D11*
%TO.C,Rpd13*%
X143260000Y-102450000D03*
X135640000Y-102450000D03*
%TD*%
D13*
%TO.C,U4*%
X42675000Y-38750000D03*
X42675000Y-41050000D03*
D14*
X48975000Y-41050000D03*
D13*
X42675000Y-43350000D03*
%TD*%
D15*
%TO.C,JD2*%
X110075000Y-134825000D03*
D16*
X107535000Y-134825000D03*
%TD*%
D11*
%TO.C,N42*%
X132300000Y-111780000D03*
X127300000Y-111780000D03*
%TD*%
D17*
%TO.C,U10*%
X174775000Y-115305000D03*
X174775000Y-114035000D03*
X174775000Y-112765000D03*
X174775000Y-111495000D03*
X174775000Y-110225000D03*
X174775000Y-108955000D03*
X174775000Y-107685000D03*
X169825000Y-107685000D03*
X169825000Y-108955000D03*
X169825000Y-110225000D03*
X169825000Y-111495000D03*
X169825000Y-112765000D03*
X169825000Y-114035000D03*
X169825000Y-115305000D03*
%TD*%
D15*
%TO.C,J1*%
X55650000Y-127435000D03*
D16*
X55650000Y-124895000D03*
X55650000Y-122355000D03*
X55650000Y-119815000D03*
X55650000Y-117275000D03*
X55650000Y-114735000D03*
X55650000Y-112195000D03*
%TD*%
D13*
%TO.C,U7*%
X43150000Y-76325000D03*
X43150000Y-78625000D03*
D14*
X49450000Y-78625000D03*
D13*
X43150000Y-80925000D03*
%TD*%
D18*
%TO.C,IC_ACONTROL1*%
X119462000Y-76935000D03*
X119462000Y-75665000D03*
X119462000Y-74395000D03*
X119462000Y-73125000D03*
X119462000Y-71855000D03*
X119462000Y-70585000D03*
X119462000Y-69315000D03*
X114038000Y-69315000D03*
X114038000Y-70585000D03*
X114038000Y-71855000D03*
X114038000Y-73125000D03*
X114038000Y-74395000D03*
X114038000Y-75665000D03*
X114038000Y-76935000D03*
%TD*%
D19*
%TO.C,C35*%
X64563606Y-122475000D03*
D11*
X67063606Y-122475000D03*
%TD*%
%TO.C,N43*%
X164875000Y-109575000D03*
X159875000Y-109575000D03*
%TD*%
%TO.C,Rpd1*%
X88475000Y-129100000D03*
X80855000Y-129100000D03*
%TD*%
D20*
%TO.C,U3*%
X190871200Y-54288400D03*
X189601200Y-54288400D03*
X188331200Y-54288400D03*
X187061200Y-54288400D03*
X185791200Y-54288400D03*
X184521200Y-54288400D03*
X183251200Y-54288400D03*
X181981200Y-54288400D03*
X180711200Y-54288400D03*
X179441200Y-54288400D03*
X178171200Y-54288400D03*
X176901200Y-54288400D03*
X175631200Y-54288400D03*
X174361200Y-54288400D03*
X173091200Y-54288400D03*
X171821200Y-54288400D03*
X170551200Y-54288400D03*
X169281200Y-54288400D03*
X168011200Y-54288400D03*
X168011200Y-67598000D03*
X169281200Y-67598000D03*
X170551200Y-67598000D03*
X171821200Y-67598000D03*
X173091200Y-67598000D03*
X174361200Y-67598000D03*
X175631200Y-67598000D03*
X176901200Y-67598000D03*
X178171200Y-67598000D03*
X179441200Y-67598000D03*
X180711200Y-67598000D03*
X181981200Y-67598000D03*
X183251200Y-67598000D03*
X184521200Y-67598000D03*
X185791200Y-67598000D03*
X187061200Y-67598000D03*
X188331200Y-67598000D03*
X189601200Y-67598000D03*
X190871200Y-67598000D03*
%TD*%
D11*
%TO.C,VR1*%
X71835000Y-91800000D03*
X74375000Y-91800000D03*
X76915000Y-91800000D03*
%TD*%
D21*
%TO.C,RP2*%
X120513600Y-44356750D03*
X120513600Y-41431750D03*
%TD*%
D11*
%TO.C,Rpd4*%
X78310000Y-104700000D03*
X70690000Y-104700000D03*
%TD*%
%TO.C,Rpd12*%
X154110000Y-102400000D03*
X146490000Y-102400000D03*
%TD*%
D12*
%TO.C,C19*%
X61000000Y-54500000D03*
X62900000Y-54500000D03*
%TD*%
D22*
%TO.C,C12*%
X201425000Y-73194600D03*
X199525000Y-73194600D03*
%TD*%
D15*
%TO.C,J6*%
X162851200Y-40979800D03*
D16*
X165391200Y-40979800D03*
X167931200Y-40979800D03*
X170471200Y-40979800D03*
X173011200Y-40979800D03*
X175551200Y-40979800D03*
X178091200Y-40979800D03*
X180631200Y-40979800D03*
%TD*%
D19*
%TO.C,C33*%
X128488606Y-120675000D03*
D11*
X130988606Y-120675000D03*
%TD*%
%TO.C,Rpd20*%
X104965000Y-102375000D03*
X112585000Y-102375000D03*
%TD*%
%TO.C,C4*%
X75225000Y-125810000D03*
X75225000Y-120810000D03*
%TD*%
D12*
%TO.C,C16*%
X61000000Y-41500000D03*
X62900000Y-41500000D03*
%TD*%
D11*
%TO.C,Rpd19*%
X162075000Y-97390000D03*
X162075000Y-105010000D03*
%TD*%
D17*
%TO.C,U9*%
X142125000Y-114650000D03*
X142125000Y-113380000D03*
X142125000Y-112110000D03*
X142125000Y-110840000D03*
X142125000Y-109570000D03*
X142125000Y-108300000D03*
X142125000Y-107030000D03*
X137175000Y-107030000D03*
X137175000Y-108300000D03*
X137175000Y-109570000D03*
X137175000Y-110840000D03*
X137175000Y-112110000D03*
X137175000Y-113380000D03*
X137175000Y-114650000D03*
%TD*%
D23*
%TO.C,C6*%
X133413600Y-46011650D03*
X133413600Y-48961650D03*
%TD*%
D15*
%TO.C,J21*%
X75990000Y-58500000D03*
D16*
X78530000Y-58500000D03*
X81070000Y-58500000D03*
%TD*%
D11*
%TO.C,Rpd15*%
X185310000Y-129275000D03*
X177690000Y-129275000D03*
%TD*%
D15*
%TO.C,J24*%
X75490000Y-43000000D03*
D16*
X78030000Y-43000000D03*
X80570000Y-43000000D03*
%TD*%
D11*
%TO.C,Rpd5*%
X64675000Y-102040000D03*
X64675000Y-109660000D03*
%TD*%
D24*
%TO.C,C36*%
X163186395Y-128725000D03*
D11*
X160686395Y-128725000D03*
%TD*%
D19*
%TO.C,C37*%
X160863606Y-119550000D03*
D11*
X163363606Y-119550000D03*
%TD*%
D15*
%TO.C,J7*%
X162125000Y-64474600D03*
D16*
X162125000Y-61934600D03*
X162125000Y-59394600D03*
X162125000Y-56854600D03*
%TD*%
D11*
%TO.C,Rpd6*%
X120535000Y-129175000D03*
X112915000Y-129175000D03*
%TD*%
%TO.C,Rpd14*%
X129725000Y-106710000D03*
X129725000Y-99090000D03*
%TD*%
D25*
%TO.C,RP1*%
X120513600Y-49924150D03*
X120513600Y-52849150D03*
%TD*%
D15*
%TO.C,J5*%
X177515000Y-76694600D03*
D16*
X174975000Y-76694600D03*
X172435000Y-76694600D03*
X169895000Y-76694600D03*
X167355000Y-76694600D03*
X164815000Y-76694600D03*
X162275000Y-76694600D03*
X159735000Y-76694600D03*
%TD*%
D12*
%TO.C,C18*%
X61000000Y-50000000D03*
X62900000Y-50000000D03*
%TD*%
D11*
%TO.C,C5*%
X114375000Y-121740000D03*
X119375000Y-121740000D03*
%TD*%
%TO.C,C15*%
X180250000Y-122425000D03*
X185250000Y-122425000D03*
%TD*%
%TO.C,Rpd3*%
X90110000Y-104675000D03*
X82490000Y-104675000D03*
%TD*%
D13*
%TO.C,U5*%
X42525000Y-49750000D03*
X42525000Y-52050000D03*
D14*
X48825000Y-52050000D03*
D13*
X42525000Y-54350000D03*
%TD*%
D11*
%TO.C,C1*%
X83575000Y-121855000D03*
X88575000Y-121855000D03*
%TD*%
%TO.C,N41*%
X101175000Y-114415000D03*
X96175000Y-114415000D03*
%TD*%
D15*
%TO.C,JD4*%
X173700000Y-135845000D03*
D16*
X171160000Y-135845000D03*
%TD*%
D15*
%TO.C,J9*%
X119123600Y-57356750D03*
D16*
X116583600Y-57356750D03*
X114043600Y-57356750D03*
X111503600Y-57356750D03*
X108963600Y-57356750D03*
%TD*%
D15*
%TO.C,JD3*%
X138925000Y-136230000D03*
D16*
X136385000Y-136230000D03*
%TD*%
D11*
%TO.C,C13*%
X146500000Y-121555000D03*
X151500000Y-121555000D03*
%TD*%
D24*
%TO.C,C34*%
X66886395Y-131725000D03*
D11*
X64386395Y-131725000D03*
%TD*%
%TO.C,Rpd16*%
X187235000Y-108675000D03*
X179615000Y-108675000D03*
%TD*%
D12*
%TO.C,C22*%
X61000000Y-73520000D03*
X62900000Y-73520000D03*
%TD*%
D15*
%TO.C,JD1*%
X76975000Y-135160000D03*
D16*
X74435000Y-135160000D03*
%TD*%
D11*
%TO.C,Rpd7*%
X123760000Y-107275000D03*
X116140000Y-107275000D03*
%TD*%
%TO.C,Rpd8*%
X123885000Y-102375000D03*
X116265000Y-102375000D03*
%TD*%
D17*
%TO.C,U8*%
X112125000Y-114125000D03*
X112125000Y-112855000D03*
X112125000Y-111585000D03*
X112125000Y-110315000D03*
X112125000Y-109045000D03*
X112125000Y-107775000D03*
X112125000Y-106505000D03*
X107175000Y-106505000D03*
X107175000Y-107775000D03*
X107175000Y-109045000D03*
X107175000Y-110315000D03*
X107175000Y-111585000D03*
X107175000Y-112855000D03*
X107175000Y-114125000D03*
%TD*%
D11*
%TO.C,Rpd17*%
X187285000Y-103175000D03*
X179665000Y-103175000D03*
%TD*%
D12*
%TO.C,C21*%
X61000000Y-69000000D03*
X62900000Y-69000000D03*
%TD*%
%TO.C,C23*%
X61000000Y-78500000D03*
X62900000Y-78500000D03*
%TD*%
D15*
%TO.C,J22*%
X71910000Y-76000000D03*
D16*
X74450000Y-76000000D03*
X76990000Y-76000000D03*
X79530000Y-76000000D03*
X82070000Y-76000000D03*
%TD*%
D13*
%TO.C,U6*%
X43150000Y-65825000D03*
X43150000Y-68125000D03*
D14*
X49450000Y-68125000D03*
D13*
X43150000Y-70425000D03*
%TD*%
D11*
%TO.C,N40*%
X66975000Y-114430000D03*
X61975000Y-114430000D03*
%TD*%
D15*
%TO.C,J11*%
X188475000Y-76694600D03*
D16*
X191015000Y-76694600D03*
X193555000Y-76694600D03*
X196095000Y-76694600D03*
%TD*%
D15*
%TO.C,J14*%
X196625000Y-64834600D03*
D16*
X196625000Y-62294600D03*
X196625000Y-59754600D03*
X196625000Y-57214600D03*
%TD*%
D15*
%TO.C,J20*%
X75990000Y-67500000D03*
D16*
X78530000Y-67500000D03*
X81070000Y-67500000D03*
%TD*%
D11*
%TO.C,C28*%
X139750000Y-125855000D03*
X139750000Y-120855000D03*
%TD*%
D26*
%TO.C,C8*%
X107813600Y-48961650D03*
X107813600Y-46011650D03*
%TD*%
D15*
%TO.C,J10*%
X107550000Y-68325000D03*
D16*
X107550000Y-70865000D03*
X107550000Y-73405000D03*
X107550000Y-75945000D03*
X107550000Y-78485000D03*
%TD*%
D27*
%TO.C,VR5*%
X135265800Y-69834900D03*
D28*
X137805800Y-72374900D03*
X135265800Y-74914900D03*
%TD*%
D15*
%TO.C,J12*%
X187931200Y-40979800D03*
D16*
X190471200Y-40979800D03*
X193011200Y-40979800D03*
%TD*%
D24*
%TO.C,C30*%
X100111395Y-131975000D03*
D11*
X97611395Y-131975000D03*
%TD*%
%TO.C,C29*%
X172475000Y-127020000D03*
X172475000Y-122020000D03*
%TD*%
D15*
%TO.C,J23*%
X75670000Y-51000000D03*
D16*
X78210000Y-51000000D03*
X80750000Y-51000000D03*
%TD*%
D29*
%TO.C,U2*%
X115518600Y-44916650D03*
X114248600Y-44916650D03*
X112978600Y-44916650D03*
X111708600Y-44916650D03*
X111708600Y-49856650D03*
X112978600Y-49856650D03*
X114248600Y-49856650D03*
X115518600Y-49856650D03*
%TD*%
D10*
%TO.C,Rf1*%
X124725000Y-69525000D03*
X127650000Y-69525000D03*
%TD*%
D30*
%TO.C,SW1*%
X126278600Y-51866750D03*
X127548600Y-51866750D03*
X127548600Y-44246750D03*
X126278600Y-44246750D03*
%TD*%
D24*
%TO.C,C32*%
X130850000Y-129900000D03*
D11*
X128350000Y-129900000D03*
%TD*%
%TO.C,Rpd10*%
X151585000Y-129175000D03*
X143965000Y-129175000D03*
%TD*%
%TO.C,Rpd2*%
X90260000Y-109500000D03*
X82640000Y-109500000D03*
%TD*%
%TO.C,Rpd9*%
X100475000Y-100415000D03*
X100475000Y-108035000D03*
%TD*%
%TO.C,VR2*%
X105210000Y-91680000D03*
X107750000Y-91680000D03*
X110290000Y-91680000D03*
%TD*%
D22*
%TO.C,C10*%
X197925000Y-47194600D03*
X196025000Y-47194600D03*
%TD*%
D19*
%TO.C,C31*%
X97675000Y-122850000D03*
D11*
X100175000Y-122850000D03*
%TD*%
D12*
%TO.C,C17*%
X61000000Y-45500000D03*
X62900000Y-45500000D03*
%TD*%
D17*
%TO.C,U1*%
X77235000Y-115315000D03*
X77235000Y-114045000D03*
X77235000Y-112775000D03*
X77235000Y-111505000D03*
X77235000Y-110235000D03*
X77235000Y-108965000D03*
X77235000Y-107695000D03*
X72285000Y-107695000D03*
X72285000Y-108965000D03*
X72285000Y-110235000D03*
X72285000Y-111505000D03*
X72285000Y-112775000D03*
X72285000Y-114045000D03*
X72285000Y-115315000D03*
%TD*%
D11*
%TO.C,VR4*%
X169385000Y-91530000D03*
X171925000Y-91530000D03*
X174465000Y-91530000D03*
%TD*%
M02*
