%TF.GenerationSoftware,KiCad,Pcbnew,10.0.1*%
%TF.CreationDate,2026-08-18T09:46:24-05:00*%
%TF.ProjectId,Merge_stage_PCB,4d657267-655f-4737-9461-67655f504342,rev?*%
%TF.SameCoordinates,Original*%
%TF.FileFunction,Soldermask,Bot*%
%TF.FilePolarity,Negative*%
%FSLAX46Y46*%
G04 Gerber Fmt 4.6, Leading zero omitted, Abs format (unit mm)*
G04 Created by KiCad (PCBNEW 10.0.1) date 2026-08-18 09:46:24*
%MOMM*%
%LPD*%
G01*
G04 APERTURE LIST*
G04 Aperture macros list*
%AMRoundRect*
0 Rectangle with rounded corners*
0 $1 Rounding radius*
0 $2 $3 $4 $5 $6 $7 $8 $9 X,Y pos of 4 corners*
0 Add a 4 corners polygon primitive as box body*
4,1,4,$2,$3,$4,$5,$6,$7,$8,$9,$2,$3,0*
0 Add four circle primitives for the rounded corners*
1,1,$1+$1,$2,$3*
1,1,$1+$1,$4,$5*
1,1,$1+$1,$6,$7*
1,1,$1+$1,$8,$9*
0 Add four rect primitives between the rounded corners*
20,1,$1+$1,$2,$3,$4,$5,0*
20,1,$1+$1,$4,$5,$6,$7,0*
20,1,$1+$1,$6,$7,$8,$9,0*
20,1,$1+$1,$8,$9,$2,$3,0*%
G04 Aperture macros list end*
%ADD10C,1.600000*%
%ADD11R,1.700000X1.700000*%
%ADD12C,1.700000*%
%ADD13RoundRect,0.250000X-0.550000X-0.550000X0.550000X-0.550000X0.550000X0.550000X-0.550000X0.550000X0*%
%ADD14RoundRect,0.250000X0.550000X0.550000X-0.550000X0.550000X-0.550000X-0.550000X0.550000X-0.550000X0*%
%ADD15RoundRect,0.102000X-0.750000X0.750000X-0.750000X-0.750000X0.750000X-0.750000X0.750000X0.750000X0*%
%ADD16C,1.704000*%
G04 APERTURE END LIST*
D10*
%TO.C,C11*%
X108350000Y-126565000D03*
X108350000Y-121565000D03*
%TD*%
%TO.C,Rpd11*%
X154085000Y-108100000D03*
X146465000Y-108100000D03*
%TD*%
%TO.C,VR3*%
X136810000Y-91605000D03*
X139350000Y-91605000D03*
X141890000Y-91605000D03*
%TD*%
%TO.C,Rpd18*%
X176235000Y-103175000D03*
X168615000Y-103175000D03*
%TD*%
%TO.C,Rpd13*%
X143260000Y-102450000D03*
X135640000Y-102450000D03*
%TD*%
D11*
%TO.C,JD2*%
X110075000Y-134825000D03*
D12*
X107535000Y-134825000D03*
%TD*%
D10*
%TO.C,N42*%
X132300000Y-111780000D03*
X127300000Y-111780000D03*
%TD*%
D11*
%TO.C,J1*%
X55650000Y-127435000D03*
D12*
X55650000Y-124895000D03*
X55650000Y-122355000D03*
X55650000Y-119815000D03*
X55650000Y-117275000D03*
X55650000Y-114735000D03*
X55650000Y-112195000D03*
%TD*%
D13*
%TO.C,C35*%
X64563606Y-122475000D03*
D10*
X67063606Y-122475000D03*
%TD*%
%TO.C,N43*%
X164875000Y-109575000D03*
X159875000Y-109575000D03*
%TD*%
%TO.C,Rpd1*%
X88475000Y-129100000D03*
X80855000Y-129100000D03*
%TD*%
%TO.C,VR1*%
X71835000Y-91800000D03*
X74375000Y-91800000D03*
X76915000Y-91800000D03*
%TD*%
%TO.C,Rpd4*%
X78310000Y-104700000D03*
X70690000Y-104700000D03*
%TD*%
%TO.C,Rpd12*%
X154110000Y-102400000D03*
X146490000Y-102400000D03*
%TD*%
D11*
%TO.C,J6*%
X162851200Y-40979800D03*
D12*
X165391200Y-40979800D03*
X167931200Y-40979800D03*
X170471200Y-40979800D03*
X173011200Y-40979800D03*
X175551200Y-40979800D03*
X178091200Y-40979800D03*
X180631200Y-40979800D03*
%TD*%
D13*
%TO.C,C33*%
X128488606Y-120675000D03*
D10*
X130988606Y-120675000D03*
%TD*%
%TO.C,Rpd20*%
X104965000Y-102375000D03*
X112585000Y-102375000D03*
%TD*%
%TO.C,C4*%
X75225000Y-125810000D03*
X75225000Y-120810000D03*
%TD*%
%TO.C,Rpd19*%
X162075000Y-97390000D03*
X162075000Y-105010000D03*
%TD*%
D11*
%TO.C,J21*%
X75990000Y-58500000D03*
D12*
X78530000Y-58500000D03*
X81070000Y-58500000D03*
%TD*%
D10*
%TO.C,Rpd15*%
X185310000Y-129275000D03*
X177690000Y-129275000D03*
%TD*%
D11*
%TO.C,J24*%
X75490000Y-43000000D03*
D12*
X78030000Y-43000000D03*
X80570000Y-43000000D03*
%TD*%
D10*
%TO.C,Rpd5*%
X64675000Y-102040000D03*
X64675000Y-109660000D03*
%TD*%
D14*
%TO.C,C36*%
X163186395Y-128725000D03*
D10*
X160686395Y-128725000D03*
%TD*%
D13*
%TO.C,C37*%
X160863606Y-119550000D03*
D10*
X163363606Y-119550000D03*
%TD*%
D11*
%TO.C,J7*%
X162125000Y-64474600D03*
D12*
X162125000Y-61934600D03*
X162125000Y-59394600D03*
X162125000Y-56854600D03*
%TD*%
D10*
%TO.C,Rpd6*%
X120535000Y-129175000D03*
X112915000Y-129175000D03*
%TD*%
%TO.C,Rpd14*%
X129725000Y-106710000D03*
X129725000Y-99090000D03*
%TD*%
D11*
%TO.C,J5*%
X177515000Y-76694600D03*
D12*
X174975000Y-76694600D03*
X172435000Y-76694600D03*
X169895000Y-76694600D03*
X167355000Y-76694600D03*
X164815000Y-76694600D03*
X162275000Y-76694600D03*
X159735000Y-76694600D03*
%TD*%
D10*
%TO.C,C5*%
X114375000Y-121740000D03*
X119375000Y-121740000D03*
%TD*%
%TO.C,C15*%
X180250000Y-122425000D03*
X185250000Y-122425000D03*
%TD*%
%TO.C,Rpd3*%
X90110000Y-104675000D03*
X82490000Y-104675000D03*
%TD*%
%TO.C,C1*%
X83575000Y-121855000D03*
X88575000Y-121855000D03*
%TD*%
%TO.C,N41*%
X101175000Y-114415000D03*
X96175000Y-114415000D03*
%TD*%
D11*
%TO.C,JD4*%
X173700000Y-135845000D03*
D12*
X171160000Y-135845000D03*
%TD*%
D11*
%TO.C,J9*%
X119123600Y-57356750D03*
D12*
X116583600Y-57356750D03*
X114043600Y-57356750D03*
X111503600Y-57356750D03*
X108963600Y-57356750D03*
%TD*%
D11*
%TO.C,JD3*%
X138925000Y-136230000D03*
D12*
X136385000Y-136230000D03*
%TD*%
D10*
%TO.C,C13*%
X146500000Y-121555000D03*
X151500000Y-121555000D03*
%TD*%
D14*
%TO.C,C34*%
X66886395Y-131725000D03*
D10*
X64386395Y-131725000D03*
%TD*%
%TO.C,Rpd16*%
X187235000Y-108675000D03*
X179615000Y-108675000D03*
%TD*%
D11*
%TO.C,JD1*%
X76975000Y-135160000D03*
D12*
X74435000Y-135160000D03*
%TD*%
D10*
%TO.C,Rpd7*%
X123760000Y-107275000D03*
X116140000Y-107275000D03*
%TD*%
%TO.C,Rpd8*%
X123885000Y-102375000D03*
X116265000Y-102375000D03*
%TD*%
%TO.C,Rpd17*%
X187285000Y-103175000D03*
X179665000Y-103175000D03*
%TD*%
D11*
%TO.C,J22*%
X71910000Y-76000000D03*
D12*
X74450000Y-76000000D03*
X76990000Y-76000000D03*
X79530000Y-76000000D03*
X82070000Y-76000000D03*
%TD*%
D10*
%TO.C,N40*%
X66975000Y-114430000D03*
X61975000Y-114430000D03*
%TD*%
D11*
%TO.C,J11*%
X188475000Y-76694600D03*
D12*
X191015000Y-76694600D03*
X193555000Y-76694600D03*
X196095000Y-76694600D03*
%TD*%
D11*
%TO.C,J14*%
X196625000Y-64834600D03*
D12*
X196625000Y-62294600D03*
X196625000Y-59754600D03*
X196625000Y-57214600D03*
%TD*%
D11*
%TO.C,J20*%
X75990000Y-67500000D03*
D12*
X78530000Y-67500000D03*
X81070000Y-67500000D03*
%TD*%
D10*
%TO.C,C28*%
X139750000Y-125855000D03*
X139750000Y-120855000D03*
%TD*%
D11*
%TO.C,J10*%
X107550000Y-68325000D03*
D12*
X107550000Y-70865000D03*
X107550000Y-73405000D03*
X107550000Y-75945000D03*
X107550000Y-78485000D03*
%TD*%
D15*
%TO.C,VR5*%
X135265800Y-69834900D03*
D16*
X137805800Y-72374900D03*
X135265800Y-74914900D03*
%TD*%
D11*
%TO.C,J12*%
X187931200Y-40979800D03*
D12*
X190471200Y-40979800D03*
X193011200Y-40979800D03*
%TD*%
D14*
%TO.C,C30*%
X100111395Y-131975000D03*
D10*
X97611395Y-131975000D03*
%TD*%
%TO.C,C29*%
X172475000Y-127020000D03*
X172475000Y-122020000D03*
%TD*%
D11*
%TO.C,J23*%
X75670000Y-51000000D03*
D12*
X78210000Y-51000000D03*
X80750000Y-51000000D03*
%TD*%
D14*
%TO.C,C32*%
X130850000Y-129900000D03*
D10*
X128350000Y-129900000D03*
%TD*%
%TO.C,Rpd10*%
X151585000Y-129175000D03*
X143965000Y-129175000D03*
%TD*%
%TO.C,Rpd2*%
X90260000Y-109500000D03*
X82640000Y-109500000D03*
%TD*%
%TO.C,Rpd9*%
X100475000Y-100415000D03*
X100475000Y-108035000D03*
%TD*%
%TO.C,VR2*%
X105210000Y-91680000D03*
X107750000Y-91680000D03*
X110290000Y-91680000D03*
%TD*%
D13*
%TO.C,C31*%
X97675000Y-122850000D03*
D10*
X100175000Y-122850000D03*
%TD*%
%TO.C,VR4*%
X169385000Y-91530000D03*
X171925000Y-91530000D03*
X174465000Y-91530000D03*
%TD*%
M02*
