%TF.GenerationSoftware,KiCad,Pcbnew,10.0.1*%
%TF.CreationDate,2026-08-18T09:46:24-05:00*%
%TF.ProjectId,Merge_stage_PCB,4d657267-655f-4737-9461-67655f504342,rev?*%
%TF.SameCoordinates,Original*%
%TF.FileFunction,Copper,L2,Bot*%
%TF.FilePolarity,Positive*%
%FSLAX46Y46*%
G04 Gerber Fmt 4.6, Leading zero omitted, Abs format (unit mm)*
G04 Created by KiCad (PCBNEW 10.0.1) date 2026-08-18 09:46:24*
%MOMM*%
%LPD*%
G01*
G04 APERTURE LIST*
G04 Aperture macros list*
%AMRoundRect*
0 Rectangle with rounded corners*
0 $1 Rounding radius*
0 $2 $3 $4 $5 $6 $7 $8 $9 X,Y pos of 4 corners*
0 Add a 4 corners polygon primitive as box body*
4,1,4,$2,$3,$4,$5,$6,$7,$8,$9,$2,$3,0*
0 Add four circle primitives for the rounded corners*
1,1,$1+$1,$2,$3*
1,1,$1+$1,$4,$5*
1,1,$1+$1,$6,$7*
1,1,$1+$1,$8,$9*
0 Add four rect primitives between the rounded corners*
20,1,$1+$1,$2,$3,$4,$5,0*
20,1,$1+$1,$4,$5,$6,$7,0*
20,1,$1+$1,$6,$7,$8,$9,0*
20,1,$1+$1,$8,$9,$2,$3,0*%
G04 Aperture macros list end*
%TA.AperFunction,ComponentPad*%
%ADD10C,1.600000*%
%TD*%
%TA.AperFunction,ComponentPad*%
%ADD11R,1.700000X1.700000*%
%TD*%
%TA.AperFunction,ComponentPad*%
%ADD12C,1.700000*%
%TD*%
%TA.AperFunction,ComponentPad*%
%ADD13RoundRect,0.250000X-0.550000X-0.550000X0.550000X-0.550000X0.550000X0.550000X-0.550000X0.550000X0*%
%TD*%
%TA.AperFunction,ComponentPad*%
%ADD14RoundRect,0.250000X0.550000X0.550000X-0.550000X0.550000X-0.550000X-0.550000X0.550000X-0.550000X0*%
%TD*%
%TA.AperFunction,ComponentPad*%
%ADD15R,1.500000X1.500000*%
%TD*%
%TA.AperFunction,ComponentPad*%
%ADD16C,1.500000*%
%TD*%
%TA.AperFunction,ViaPad*%
%ADD17C,1.500000*%
%TD*%
%TA.AperFunction,Conductor*%
%ADD18C,0.200000*%
%TD*%
G04 APERTURE END LIST*
D10*
%TO.P,C11,1*%
%TO.N,GND_PD*%
X108350000Y-126565000D03*
%TO.P,C11,2*%
%TO.N,Net-(C11-Pad2)*%
X108350000Y-121565000D03*
%TD*%
%TO.P,Rpd11,1*%
%TO.N,Net-(C28-Pad2)*%
X154085000Y-108100000D03*
%TO.P,Rpd11,2*%
%TO.N,Net-(U9B--IN_B)*%
X146465000Y-108100000D03*
%TD*%
%TO.P,VR3,1*%
%TO.N,GND_PD*%
X136810000Y-91605000D03*
%TO.P,VR3,2*%
%TO.N,Net-(JD3-Pin_1)*%
X139350000Y-91605000D03*
%TO.P,VR3,3*%
%TO.N,Net-(U9A-OUT_A)*%
X141890000Y-91605000D03*
%TD*%
%TO.P,Rpd18,1*%
%TO.N,Net-(U10B-OUT_B)*%
X176235000Y-103175000D03*
%TO.P,Rpd18,2*%
%TO.N,Net-(U10C-+IN_C)*%
X168615000Y-103175000D03*
%TD*%
%TO.P,Rpd13,1*%
%TO.N,Net-(U9B-OUT_B)*%
X143260000Y-102450000D03*
%TO.P,Rpd13,2*%
%TO.N,Net-(U9C-+IN_C)*%
X135640000Y-102450000D03*
%TD*%
D11*
%TO.P,JD2,1,Pin_1_1*%
%TO.N,Net-(JD2-Pin_1)*%
X110075000Y-134825000D03*
D12*
%TO.P,JD2,2,Pin_2_2*%
%TO.N,GND_PD*%
X107535000Y-134825000D03*
%TD*%
D10*
%TO.P,N42,1*%
%TO.N,Net-(U9C--IN_C)*%
X132300000Y-111780000D03*
%TO.P,N42,2*%
%TO.N,/VOUT_PH3*%
X127300000Y-111780000D03*
%TD*%
D11*
%TO.P,J1,1,Pin_1_1*%
%TO.N,/VCC_PD*%
X55650000Y-127435000D03*
D12*
%TO.P,J1,2,Pin_2_2*%
%TO.N,/VDD_PD*%
X55650000Y-124895000D03*
%TO.P,J1,3,Pin_3_3*%
%TO.N,GND_PD*%
X55650000Y-122355000D03*
%TO.P,J1,4,Pin_4_4*%
%TO.N,/VOUT_PH1*%
X55650000Y-119815000D03*
%TO.P,J1,5,Pin_5_5*%
%TO.N,/VOUT_PH2*%
X55650000Y-117275000D03*
%TO.P,J1,6,Pin_6_6*%
%TO.N,/VOUT_PH3*%
X55650000Y-114735000D03*
%TO.P,J1,7,Pin_7_7*%
%TO.N,/VOUT_PH4*%
X55650000Y-112195000D03*
%TD*%
D13*
%TO.P,C35,1*%
%TO.N,/VCC_PD*%
X64563606Y-122475000D03*
D10*
%TO.P,C35,2*%
%TO.N,GND_PD*%
X67063606Y-122475000D03*
%TD*%
%TO.P,N43,1*%
%TO.N,Net-(U10C--IN_C)*%
X164875000Y-109575000D03*
%TO.P,N43,2*%
%TO.N,/VOUT_PH4*%
X159875000Y-109575000D03*
%TD*%
%TO.P,Rpd1,1*%
%TO.N,Net-(U1A-OUT_A)*%
X88475000Y-129100000D03*
%TO.P,Rpd1,2*%
%TO.N,Net-(C4-Pad2)*%
X80855000Y-129100000D03*
%TD*%
%TO.P,VR1,1*%
%TO.N,GND_PD*%
X71835000Y-91800000D03*
%TO.P,VR1,2*%
%TO.N,Net-(JD1-Pin_1)*%
X74375000Y-91800000D03*
%TO.P,VR1,3*%
%TO.N,Net-(U1A-OUT_A)*%
X76915000Y-91800000D03*
%TD*%
%TO.P,Rpd4,1*%
%TO.N,Net-(U1B-OUT_B)*%
X78310000Y-104700000D03*
%TO.P,Rpd4,2*%
%TO.N,Net-(U1C-+IN_C)*%
X70690000Y-104700000D03*
%TD*%
%TO.P,Rpd12,1*%
%TO.N,Net-(U9B--IN_B)*%
X154110000Y-102400000D03*
%TO.P,Rpd12,2*%
%TO.N,Net-(U9B-OUT_B)*%
X146490000Y-102400000D03*
%TD*%
D11*
%TO.P,J6,1,Pin_1_1*%
%TO.N,/ADS_MUX_MODULE/AIN8*%
X162851200Y-40979800D03*
D12*
%TO.P,J6,2,Pin_2_2*%
%TO.N,/ADS_MUX_MODULE/AIN9*%
X165391200Y-40979800D03*
%TO.P,J6,3,Pin_3_3*%
%TO.N,/ADS_MUX_MODULE/AIN10*%
X167931200Y-40979800D03*
%TO.P,J6,4,Pin_4_4*%
%TO.N,/ADS_MUX_MODULE/AIN11*%
X170471200Y-40979800D03*
%TO.P,J6,5,Pin_5_5*%
%TO.N,/ADS_MUX_MODULE/AIN12*%
X173011200Y-40979800D03*
%TO.P,J6,6,Pin_6_6*%
%TO.N,/ADS_MUX_MODULE/AIN13*%
X175551200Y-40979800D03*
%TO.P,J6,7,Pin_7_7*%
%TO.N,/ADS_MUX_MODULE/AIN14*%
X178091200Y-40979800D03*
%TO.P,J6,8,Pin_8_8*%
%TO.N,/ADS_MUX_MODULE/AIN15*%
X180631200Y-40979800D03*
%TD*%
D13*
%TO.P,C33,1*%
%TO.N,/VCC_PD*%
X128488606Y-120675000D03*
D10*
%TO.P,C33,2*%
%TO.N,GND_PD*%
X130988606Y-120675000D03*
%TD*%
%TO.P,Rpd20,1*%
%TO.N,Net-(U8C-+IN_C)*%
X104965000Y-102375000D03*
%TO.P,Rpd20,2*%
%TO.N,Net-(U8B-OUT_B)*%
X112585000Y-102375000D03*
%TD*%
%TO.P,C4,1*%
%TO.N,GND_PD*%
X75225000Y-125810000D03*
%TO.P,C4,2*%
%TO.N,Net-(C4-Pad2)*%
X75225000Y-120810000D03*
%TD*%
%TO.P,Rpd19,1*%
%TO.N,GND_PD*%
X162075000Y-97390000D03*
%TO.P,Rpd19,2*%
%TO.N,/VOUT_PH4*%
X162075000Y-105010000D03*
%TD*%
D11*
%TO.P,J21,1,Pin_1_1*%
%TO.N,/POWER_STAGE/+3V3*%
X75990000Y-58500000D03*
D12*
%TO.P,J21,2,Pin_2_2*%
%TO.N,/POWER_STAGE/-3V3*%
X78530000Y-58500000D03*
%TO.P,J21,3,Pin_3_3*%
%TO.N,GND_PWR*%
X81070000Y-58500000D03*
%TD*%
D10*
%TO.P,Rpd15,1*%
%TO.N,Net-(U10A-OUT_A)*%
X185310000Y-129275000D03*
%TO.P,Rpd15,2*%
%TO.N,Net-(C29-Pad2)*%
X177690000Y-129275000D03*
%TD*%
D11*
%TO.P,J24,1,Pin_1_1*%
%TO.N,/POWER_STAGE/+5_EXT*%
X75490000Y-43000000D03*
D12*
%TO.P,J24,2,Pin_2_2*%
%TO.N,/POWER_STAGE/-5_EXT*%
X78030000Y-43000000D03*
%TO.P,J24,3,Pin_3_3*%
%TO.N,GND_PWR*%
X80570000Y-43000000D03*
%TD*%
D10*
%TO.P,Rpd5,1*%
%TO.N,GND_PD*%
X64675000Y-102040000D03*
%TO.P,Rpd5,2*%
%TO.N,/VOUT_PH1*%
X64675000Y-109660000D03*
%TD*%
D14*
%TO.P,C36,1*%
%TO.N,GND_PD*%
X163186395Y-128725000D03*
D10*
%TO.P,C36,2*%
%TO.N,/VDD_PD*%
X160686395Y-128725000D03*
%TD*%
D13*
%TO.P,C37,1*%
%TO.N,/VCC_PD*%
X160863606Y-119550000D03*
D10*
%TO.P,C37,2*%
%TO.N,GND_PD*%
X163363606Y-119550000D03*
%TD*%
D11*
%TO.P,J7,1,Pin_1_1*%
%TO.N,/DGND*%
X162125000Y-64474600D03*
D12*
%TO.P,J7,2,Pin_2_2*%
%TO.N,/AGND*%
X162125000Y-61934600D03*
%TO.P,J7,3,Pin_3_3*%
%TO.N,+3.3V*%
X162125000Y-59394600D03*
%TO.P,J7,4,Pin_4_4*%
%TO.N,+5V*%
X162125000Y-56854600D03*
%TD*%
D10*
%TO.P,Rpd6,1*%
%TO.N,Net-(U8A-OUT_A)*%
X120535000Y-129175000D03*
%TO.P,Rpd6,2*%
%TO.N,Net-(C11-Pad2)*%
X112915000Y-129175000D03*
%TD*%
%TO.P,Rpd14,1*%
%TO.N,GND_PD*%
X129725000Y-106710000D03*
%TO.P,Rpd14,2*%
%TO.N,/VOUT_PH3*%
X129725000Y-99090000D03*
%TD*%
D11*
%TO.P,J5,1,Pin_1_1*%
%TO.N,/ADS_MUX_MODULE/AIN0*%
X177515000Y-76694600D03*
D12*
%TO.P,J5,2,Pin_2_2*%
%TO.N,/ADS_MUX_MODULE/AIN1*%
X174975000Y-76694600D03*
%TO.P,J5,3,Pin_3_3*%
%TO.N,/ADS_MUX_MODULE/AIN2*%
X172435000Y-76694600D03*
%TO.P,J5,4,Pin_4_4*%
%TO.N,/ADS_MUX_MODULE/AIN3*%
X169895000Y-76694600D03*
%TO.P,J5,5,Pin_5_5*%
%TO.N,/ADS_MUX_MODULE/AIN4*%
X167355000Y-76694600D03*
%TO.P,J5,6,Pin_6_6*%
%TO.N,/ADS_MUX_MODULE/AIN5*%
X164815000Y-76694600D03*
%TO.P,J5,7,Pin_7_7*%
%TO.N,/ADS_MUX_MODULE/AIN6*%
X162275000Y-76694600D03*
%TO.P,J5,8,Pin_8_8*%
%TO.N,/ADS_MUX_MODULE/AIN7*%
X159735000Y-76694600D03*
%TD*%
D10*
%TO.P,C5,1*%
%TO.N,Net-(JD2-Pin_1)*%
X114375000Y-121740000D03*
%TO.P,C5,2*%
%TO.N,Net-(U8A-OUT_A)*%
X119375000Y-121740000D03*
%TD*%
%TO.P,C15,1*%
%TO.N,Net-(JD4-Pin_1)*%
X180250000Y-122425000D03*
%TO.P,C15,2*%
%TO.N,Net-(U10A-OUT_A)*%
X185250000Y-122425000D03*
%TD*%
%TO.P,Rpd3,1*%
%TO.N,Net-(U1B--IN_B)*%
X90110000Y-104675000D03*
%TO.P,Rpd3,2*%
%TO.N,Net-(U1B-OUT_B)*%
X82490000Y-104675000D03*
%TD*%
%TO.P,C1,1*%
%TO.N,Net-(JD1-Pin_1)*%
X83575000Y-121855000D03*
%TO.P,C1,2*%
%TO.N,Net-(U1A-OUT_A)*%
X88575000Y-121855000D03*
%TD*%
%TO.P,N41,1*%
%TO.N,Net-(U8C--IN_C)*%
X101175000Y-114415000D03*
%TO.P,N41,2*%
%TO.N,/VOUT_PH2*%
X96175000Y-114415000D03*
%TD*%
D11*
%TO.P,JD4,1,Pin_1_1*%
%TO.N,Net-(JD4-Pin_1)*%
X173700000Y-135845000D03*
D12*
%TO.P,JD4,2,Pin_2_2*%
%TO.N,GND_PD*%
X171160000Y-135845000D03*
%TD*%
D11*
%TO.P,J9,1,Pin_1_1*%
%TO.N,/VCC_DAMP*%
X119123600Y-57356750D03*
D12*
%TO.P,J9,2,Pin_2_2*%
%TO.N,/AINP_OUT_DAMP*%
X116583600Y-57356750D03*
%TO.P,J9,3,Pin_3_3*%
%TO.N,/VDD_DAMP*%
X114043600Y-57356750D03*
%TO.P,J9,4,Pin_4_4*%
%TO.N,/MXO_IN_DAMP*%
X111503600Y-57356750D03*
%TO.P,J9,5,Pin_5_5*%
%TO.N,GND_DAMP*%
X108963600Y-57356750D03*
%TD*%
D11*
%TO.P,JD3,1,Pin_1_1*%
%TO.N,Net-(JD3-Pin_1)*%
X138925000Y-136230000D03*
D12*
%TO.P,JD3,2,Pin_2_2*%
%TO.N,GND_PD*%
X136385000Y-136230000D03*
%TD*%
D10*
%TO.P,C13,1*%
%TO.N,Net-(JD3-Pin_1)*%
X146500000Y-121555000D03*
%TO.P,C13,2*%
%TO.N,Net-(U9A-OUT_A)*%
X151500000Y-121555000D03*
%TD*%
D14*
%TO.P,C34,1*%
%TO.N,GND_PD*%
X66886395Y-131725000D03*
D10*
%TO.P,C34,2*%
%TO.N,/VDD_PD*%
X64386395Y-131725000D03*
%TD*%
%TO.P,Rpd16,1*%
%TO.N,Net-(C29-Pad2)*%
X187235000Y-108675000D03*
%TO.P,Rpd16,2*%
%TO.N,Net-(U10B--IN_B)*%
X179615000Y-108675000D03*
%TD*%
D11*
%TO.P,JD1,1,Pin_1_1*%
%TO.N,Net-(JD1-Pin_1)*%
X76975000Y-135160000D03*
D12*
%TO.P,JD1,2,Pin_2_2*%
%TO.N,GND_PD*%
X74435000Y-135160000D03*
%TD*%
D10*
%TO.P,Rpd7,1*%
%TO.N,Net-(C11-Pad2)*%
X123760000Y-107275000D03*
%TO.P,Rpd7,2*%
%TO.N,Net-(U8B--IN_B)*%
X116140000Y-107275000D03*
%TD*%
%TO.P,Rpd8,1*%
%TO.N,Net-(U8B--IN_B)*%
X123885000Y-102375000D03*
%TO.P,Rpd8,2*%
%TO.N,Net-(U8B-OUT_B)*%
X116265000Y-102375000D03*
%TD*%
%TO.P,Rpd17,1*%
%TO.N,Net-(U10B--IN_B)*%
X187285000Y-103175000D03*
%TO.P,Rpd17,2*%
%TO.N,Net-(U10B-OUT_B)*%
X179665000Y-103175000D03*
%TD*%
D11*
%TO.P,J22,1,Pin_1_1*%
%TO.N,/POWER_STAGE/+3V3*%
X71910000Y-76000000D03*
D12*
%TO.P,J22,2,Pin_2_2*%
X74450000Y-76000000D03*
%TO.P,J22,3,Pin_3_3*%
%TO.N,/POWER_STAGE/+2V5*%
X76990000Y-76000000D03*
%TO.P,J22,4,Pin_4_4*%
%TO.N,GND_PWR*%
X79530000Y-76000000D03*
%TO.P,J22,5,Pin_5_5*%
X82070000Y-76000000D03*
%TD*%
D10*
%TO.P,N40,1*%
%TO.N,Net-(U1C--IN_C)*%
X66975000Y-114430000D03*
%TO.P,N40,2*%
%TO.N,/VOUT_PH1*%
X61975000Y-114430000D03*
%TD*%
D11*
%TO.P,J11,1,Pin_1_1*%
%TO.N,/ADS_MUX_MODULE/ADC_CS*%
X188475000Y-76694600D03*
D12*
%TO.P,J11,2,Pin_2_2*%
%TO.N,/ADS_MUX_MODULE/ADC_SCLK*%
X191015000Y-76694600D03*
%TO.P,J11,3,Pin_3_3*%
%TO.N,/ADS_MUX_MODULE/ADC_MOSI*%
X193555000Y-76694600D03*
%TO.P,J11,4,Pin_4_4*%
%TO.N,/ADS_MUX_MODULE/ADC_MISO*%
X196095000Y-76694600D03*
%TD*%
D11*
%TO.P,J14,1,Pin_1_1*%
%TO.N,/ADS_MUX_MODULE/ADC_GPI00*%
X196625000Y-64834600D03*
D12*
%TO.P,J14,2,Pin_2_2*%
%TO.N,/ADS_MUX_MODULE/ADC_GPI01*%
X196625000Y-62294600D03*
%TO.P,J14,3,Pin_3_3*%
%TO.N,/ADS_MUX_MODULE/ADC_GPI02*%
X196625000Y-59754600D03*
%TO.P,J14,4,Pin_4_4*%
%TO.N,/ADS_MUX_MODULE/ADC_GPI03*%
X196625000Y-57214600D03*
%TD*%
D11*
%TO.P,J20,1,Pin_1_1*%
%TO.N,/POWER_STAGE/+5_EXT*%
X75990000Y-67500000D03*
D12*
%TO.P,J20,2,Pin_2_2*%
%TO.N,GNDPWR*%
X78530000Y-67500000D03*
%TO.P,J20,3,Pin_3_3*%
%TO.N,/POWER_STAGE/-5_EXT*%
X81070000Y-67500000D03*
%TD*%
D10*
%TO.P,C28,1*%
%TO.N,GND_PD*%
X139750000Y-125855000D03*
%TO.P,C28,2*%
%TO.N,Net-(C28-Pad2)*%
X139750000Y-120855000D03*
%TD*%
D11*
%TO.P,J10,1,Pin_1_1*%
%TO.N,/VCC_AAMP*%
X107550000Y-68325000D03*
D12*
%TO.P,J10,2,Pin_2_2*%
%TO.N,/VDD_AAMP*%
X107550000Y-70865000D03*
%TO.P,J10,3,Pin_3_3*%
%TO.N,GND_AAMP*%
X107550000Y-73405000D03*
%TO.P,J10,4,Pin_4_4*%
%TO.N,/MXO_IN_AAMP*%
X107550000Y-75945000D03*
%TO.P,J10,5,Pin_5_5*%
%TO.N,/AINP_OUT_AAMP*%
X107550000Y-78485000D03*
%TD*%
D15*
%TO.P,VR5,1*%
%TO.N,Net-(Rf1-Pad1)*%
X135265800Y-69834900D03*
D16*
%TO.P,VR5,2*%
%TO.N,/AINP_OUT_AAMP*%
X137805800Y-72374900D03*
%TO.P,VR5,3*%
X135265800Y-74914900D03*
%TD*%
D11*
%TO.P,J12,1,Pin_1_1*%
%TO.N,/ADC_AINM*%
X187931200Y-40979800D03*
D12*
%TO.P,J12,2,Pin_2_2*%
%TO.N,/ADC_AINP*%
X190471200Y-40979800D03*
%TO.P,J12,3,Pin_3_3*%
%TO.N,/ADC_MXO*%
X193011200Y-40979800D03*
%TD*%
D14*
%TO.P,C30,1*%
%TO.N,GND_PD*%
X100111395Y-131975000D03*
D10*
%TO.P,C30,2*%
%TO.N,/VDD_PD*%
X97611395Y-131975000D03*
%TD*%
%TO.P,C29,1*%
%TO.N,GND_PD*%
X172475000Y-127020000D03*
%TO.P,C29,2*%
%TO.N,Net-(C29-Pad2)*%
X172475000Y-122020000D03*
%TD*%
D11*
%TO.P,J23,1,Pin_1_1*%
%TO.N,/POWER_STAGE/+5_EXT*%
X75670000Y-51000000D03*
D12*
%TO.P,J23,2,Pin_2_2*%
%TO.N,/POWER_STAGE/-5_EXT*%
X78210000Y-51000000D03*
%TO.P,J23,3,Pin_3_3*%
%TO.N,GND_PWR*%
X80750000Y-51000000D03*
%TD*%
D14*
%TO.P,C32,1*%
%TO.N,GND_PD*%
X130850000Y-129900000D03*
D10*
%TO.P,C32,2*%
%TO.N,/VDD_PD*%
X128350000Y-129900000D03*
%TD*%
%TO.P,Rpd10,1*%
%TO.N,Net-(U9A-OUT_A)*%
X151585000Y-129175000D03*
%TO.P,Rpd10,2*%
%TO.N,Net-(C28-Pad2)*%
X143965000Y-129175000D03*
%TD*%
%TO.P,Rpd2,1*%
%TO.N,Net-(C4-Pad2)*%
X90260000Y-109500000D03*
%TO.P,Rpd2,2*%
%TO.N,Net-(U1B--IN_B)*%
X82640000Y-109500000D03*
%TD*%
%TO.P,Rpd9,1*%
%TO.N,GND_PD*%
X100475000Y-100415000D03*
%TO.P,Rpd9,2*%
%TO.N,/VOUT_PH2*%
X100475000Y-108035000D03*
%TD*%
%TO.P,VR2,1*%
%TO.N,GND_PD*%
X105210000Y-91680000D03*
%TO.P,VR2,2*%
%TO.N,Net-(JD2-Pin_1)*%
X107750000Y-91680000D03*
%TO.P,VR2,3*%
%TO.N,Net-(U8A-OUT_A)*%
X110290000Y-91680000D03*
%TD*%
D13*
%TO.P,C31,1*%
%TO.N,/VCC_PD*%
X97675000Y-122850000D03*
D10*
%TO.P,C31,2*%
%TO.N,GND_PD*%
X100175000Y-122850000D03*
%TD*%
%TO.P,VR4,1*%
%TO.N,GND_PD*%
X169385000Y-91530000D03*
%TO.P,VR4,2*%
%TO.N,Net-(JD4-Pin_1)*%
X171925000Y-91530000D03*
%TO.P,VR4,3*%
%TO.N,Net-(U10A-OUT_A)*%
X174465000Y-91530000D03*
%TD*%
D17*
%TO.N,/POWER_STAGE/-5_EXT*%
X68200000Y-62400000D03*
%TO.N,Net-(U10C-+IN_C)*%
X162950000Y-114175000D03*
%TO.N,Net-(U8C-+IN_C)*%
X103225000Y-117590000D03*
%TO.N,Net-(U9C-+IN_C)*%
X132600000Y-115700000D03*
%TO.N,Net-(U1C-+IN_C)*%
X69275000Y-114600000D03*
%TD*%
%TO.N,Net-(C11-Pad2)*%
D18*
X120700000Y-123725000D02*
X123760000Y-120665000D01*
X123760000Y-120665000D02*
X123760000Y-107275000D01*
X112885000Y-123725000D02*
X120700000Y-123725000D01*
X108350000Y-121565000D02*
X110725000Y-121565000D01*
X110725000Y-121565000D02*
X112885000Y-123725000D01*
%TO.N,/VCC_PD*%
X55650000Y-127435000D02*
X56095000Y-127435000D01*
%TO.N,/POWER_STAGE/-5_EXT*%
X75970000Y-62400000D02*
X81070000Y-67500000D01*
X68200000Y-62400000D02*
X75970000Y-62400000D01*
%TO.N,Net-(JD3-Pin_1)*%
X136875000Y-97895000D02*
X136875000Y-134180000D01*
X139350000Y-91605000D02*
X139350000Y-95390000D01*
X136875000Y-134180000D02*
X138925000Y-136230000D01*
X139350000Y-95390000D02*
X139365000Y-95405000D01*
X139365000Y-95405000D02*
X136875000Y-97895000D01*
%TO.N,Net-(U9A-OUT_A)*%
X150275000Y-110405000D02*
X153700000Y-113830000D01*
X141890000Y-95390000D02*
X150275000Y-103775000D01*
X153700000Y-119355000D02*
X151500000Y-121555000D01*
X141890000Y-91605000D02*
X141890000Y-95390000D01*
X153700000Y-113830000D02*
X153700000Y-119355000D01*
X150275000Y-103775000D02*
X150275000Y-110405000D01*
%TO.N,Net-(JD2-Pin_1)*%
X107750000Y-96465000D02*
X107785000Y-96500000D01*
X107785000Y-96500000D02*
X107785000Y-95440000D01*
X107750000Y-91680000D02*
X107750000Y-96465000D01*
X105825000Y-129465000D02*
X105825000Y-119040000D01*
X110075000Y-133715000D02*
X105825000Y-129465000D01*
X107632500Y-117232500D02*
X107785000Y-117080000D01*
X105825000Y-119040000D02*
X107632500Y-117232500D01*
X107785000Y-117080000D02*
X107785000Y-96500000D01*
X110075000Y-134825000D02*
X110075000Y-133715000D01*
X107632500Y-117232500D02*
X112140000Y-121740000D01*
X112140000Y-121740000D02*
X114375000Y-121740000D01*
%TO.N,Net-(U10A-OUT_A)*%
X183175000Y-103200000D02*
X174465000Y-94490000D01*
X185250000Y-122425000D02*
X183175000Y-120350000D01*
X174465000Y-94490000D02*
X174465000Y-91530000D01*
X183175000Y-120350000D02*
X183175000Y-103200000D01*
%TO.N,Net-(JD4-Pin_1)*%
X171975000Y-96125000D02*
X171975000Y-118370000D01*
X169975000Y-129170000D02*
X173700000Y-132895000D01*
X171975000Y-95445000D02*
X171975000Y-96125000D01*
X171925000Y-91530000D02*
X171925000Y-96075000D01*
X171975000Y-118370000D02*
X169975000Y-120370000D01*
X171925000Y-96075000D02*
X171975000Y-96125000D01*
X173700000Y-132895000D02*
X173700000Y-135845000D01*
X169975000Y-120370000D02*
X169975000Y-129170000D01*
%TO.N,Net-(U10C-+IN_C)*%
X162950000Y-108840000D02*
X162950000Y-114175000D01*
X168615000Y-103175000D02*
X162950000Y-108840000D01*
%TO.N,/VDD_PD*%
X115775000Y-138230000D02*
X101830000Y-138230000D01*
X128350000Y-129900000D02*
X124105000Y-129900000D01*
X160686395Y-128725000D02*
X156955000Y-128725000D01*
X124105000Y-129900000D02*
X115775000Y-138230000D01*
X128350000Y-132005000D02*
X128350000Y-129900000D01*
X69500000Y-129250000D02*
X62500000Y-129250000D01*
X134695000Y-138350000D02*
X128350000Y-132005000D01*
X101830000Y-138230000D02*
X97611395Y-134011395D01*
X97611395Y-134011395D02*
X97611395Y-131975000D01*
X58145000Y-124895000D02*
X55650000Y-124895000D01*
X62500000Y-129250000D02*
X58145000Y-124895000D01*
X147330000Y-138350000D02*
X134695000Y-138350000D01*
X97611395Y-131975000D02*
X72225000Y-131975000D01*
X72225000Y-131975000D02*
X69500000Y-129250000D01*
X156955000Y-128725000D02*
X147330000Y-138350000D01*
%TO.N,Net-(C29-Pad2)*%
X177690000Y-129275000D02*
X182175000Y-129275000D01*
X187875000Y-123575000D02*
X187875000Y-109315000D01*
X182175000Y-129275000D02*
X187875000Y-123575000D01*
X187875000Y-109315000D02*
X187235000Y-108675000D01*
%TO.N,Net-(JD1-Pin_1)*%
X74375000Y-112655000D02*
X83575000Y-121855000D01*
X74375000Y-91800000D02*
X74375000Y-112655000D01*
%TO.N,Net-(U1A-OUT_A)*%
X88575000Y-107120000D02*
X76915000Y-95460000D01*
X88575000Y-121855000D02*
X88575000Y-107120000D01*
X76915000Y-91800000D02*
X76915000Y-95460000D01*
%TO.N,Net-(C4-Pad2)*%
X90175000Y-125325000D02*
X91800000Y-123700000D01*
X80855000Y-129100000D02*
X84630000Y-125325000D01*
X91800000Y-123700000D02*
X91800000Y-111040000D01*
X91800000Y-111040000D02*
X90260000Y-109500000D01*
X84630000Y-125325000D02*
X90175000Y-125325000D01*
%TO.N,Net-(U8C-+IN_C)*%
X104965000Y-115025000D02*
X104965000Y-102375000D01*
X103225000Y-117590000D02*
X103225000Y-116765000D01*
X103225000Y-116765000D02*
X104965000Y-115025000D01*
%TO.N,Net-(U9C-+IN_C)*%
X134400000Y-114730000D02*
X134400000Y-103690000D01*
X134400000Y-103690000D02*
X135640000Y-102450000D01*
X133825000Y-115305000D02*
X134400000Y-114730000D01*
X132995000Y-115305000D02*
X133825000Y-115305000D01*
X132600000Y-115700000D02*
X132995000Y-115305000D01*
%TO.N,Net-(C28-Pad2)*%
X142830000Y-120855000D02*
X139750000Y-120855000D01*
X154884999Y-120715001D02*
X151150000Y-124450000D01*
X154884999Y-108899999D02*
X154884999Y-120715001D01*
X146425000Y-124450000D02*
X142830000Y-120855000D01*
X154085000Y-108100000D02*
X154884999Y-108899999D01*
X151150000Y-124450000D02*
X146425000Y-124450000D01*
%TO.N,Net-(U8A-OUT_A)*%
X119100000Y-104215000D02*
X121375000Y-106490000D01*
X114710000Y-99825000D02*
X117500000Y-99825000D01*
X119100000Y-101425000D02*
X119100000Y-104215000D01*
X121375000Y-106490000D02*
X121375000Y-119740000D01*
X110290000Y-91680000D02*
X110290000Y-95405000D01*
X110290000Y-95405000D02*
X114710000Y-99825000D01*
X117500000Y-99825000D02*
X119100000Y-101425000D01*
X121375000Y-119740000D02*
X119375000Y-121740000D01*
%TO.N,Net-(U1C-+IN_C)*%
X69275000Y-114600000D02*
X69275000Y-106115000D01*
X69275000Y-106115000D02*
X70690000Y-104700000D01*
%TD*%
M02*
